<?xml version="1.0" encoding="UTF-8"?>
<!-- Generator: visioncortex VTracer 0.6.3 -->
<svg version="1.1" xmlns="http://www.w3.org/2000/svg" width="1280" height="720">
<path d="M0 0 C4.07 0.38 7.47 0.88 11 3 C11 3.66 11 4.32 11 5 C11.64 5.23 12.28 5.45 12.94 5.69 C17.13 7.49 21.04 9.74 25 12 C25 12.66 25 13.32 25 14 C25.66 14.04 26.32 14.08 27 14.12 C30.78 15.23 33.12 17.23 36.13 19.72 C38.04 21.28 38.04 21.28 41 21 C41.45 21.47 41.91 21.95 42.38 22.44 C45.37 25.32 48.8 25 52.81 25.06 C54.39 25.03 54.39 25.03 56 25 C56.33 24.01 56.66 23.02 57 22 C57.78 21.92 58.57 21.83 59.38 21.75 C62.15 21.27 62.15 21.27 63.31 18.94 C63.65 17.98 63.65 17.98 64 17 C64.99 17 65.98 17 67 17 C67 16.34 67 15.68 67 15 C67.68 14.75 68.36 14.5 69.06 14.25 C75.14 11.66 80.43 8.09 85.79 4.27 C88.21 2.88 90.26 2.4 93 2 C93 1.34 93 0.68 93 0 C97.4 0.4 99.9 2.18 103.25 4.84 C104.95 6.11 104.95 6.11 107.03 6.47 C109.47 7.13 110.27 8.19 112 10 C113.58 11.02 115.19 12 116.81 12.94 C120.63 15.18 124.33 17.53 128 20 C129.37 20.9 130.74 21.8 132.12 22.69 C132.77 23.1 133.41 23.52 134.07 23.95 C138.19 26.19 141.47 26.28 146 25 C147.44 23.05 147.44 23.05 148 21 C149.32 21 150.64 21 152 21 C152.16 20.4 152.33 19.8 152.5 19.19 C154.53 16.23 156.67 15.82 160.03 14.81 C162.28 13.89 163.34 12.75 165 11 C167.89 9.14 170.93 7.54 174 6 C175.98 7.15 175.98 7.15 178 9 C178.45 11.54 178.45 11.54 178.39 14.54 C178.37 16.15 178.37 16.15 178.35 17.79 C178.3 19.47 178.3 19.47 178.25 21.19 C178.23 22.32 178.21 23.45 178.2 24.62 C178.15 27.41 178.08 30.21 178 33 C178.66 33.33 179.32 33.66 180 34 C180 39.28 180 44.56 180 50 C179.34 50 178.68 50 178 50 C178 53.63 178 57.26 178 61 C177.34 61 176.68 61 176 61 C175.67 62.32 175.34 63.64 175 65 C175.99 65.33 176.98 65.66 178 66 C177.34 68.31 176.68 70.62 176 73 C175.34 73 174.68 73 174 73 C174.33 75.31 174.66 77.62 175 80 C174.01 80.5 174.01 80.5 173 81 C172.01 80.67 171.02 80.34 170 80 C167.47 82.36 166.11 83.66 165 87 C162.6 88.45 160.25 89.75 157.75 91 C156.41 91.69 155.07 92.37 153.73 93.06 C152.77 93.55 152.77 93.55 151.79 94.06 C149.47 95.28 147.24 96.64 145 98 C142.31 99.25 142.31 99.25 140 100 C139.34 99.67 138.68 99.34 138 99 C138 98.34 138 97.68 138 97 C136.89 97.09 136.89 97.09 135.75 97.19 C132.51 96.97 131.42 96.08 129 94 C128.34 93.67 127.68 93.34 127 93 C127 92.34 127 91.68 127 91 C126.38 90.9 125.76 90.79 125.12 90.69 C123 90 123 90 121 87 C119.09 86.4 119.09 86.4 117 86 C115.72 85.38 114.45 84.71 113.21 84 C112.52 83.61 111.82 83.22 111.11 82.81 C110.39 82.4 109.68 81.99 108.94 81.56 C108.22 81.15 107.5 80.75 106.76 80.33 C103.77 78.63 100.86 76.91 98 75 C94.36 75.32 94.36 75.32 91 76 C91 75.34 91 74.68 91 74 C90.01 74 89.02 74 88 74 C88.33 75.32 88.66 76.64 89 78 C88.48 78.25 87.97 78.5 87.44 78.75 C85.38 79.81 83.42 80.94 81.44 82.12 C78 84 78 84 75 84 C74.67 84.99 74.34 85.98 74 87 C73.44 86.75 72.89 86.5 72.31 86.25 C69.76 85.72 69.76 85.72 67.25 87.94 C66.51 88.62 65.76 89.3 65 90 C65.33 90.66 65.66 91.32 66 92 C65.13 92.41 64.27 92.82 63.38 93.25 C59.97 94.9 59.97 94.9 57.06 97.19 C53.33 99.39 51.27 99.63 47 99 C44.94 97.12 44.94 97.12 43 95 C39.87 93.73 39.87 93.73 37 93 C37 92.34 37 91.68 37 91 C36.24 90.86 35.47 90.71 34.69 90.56 C32 90 32 90 29 89 C29 88.34 29 87.68 29 87 C28.28 86.73 27.56 86.46 26.81 86.19 C24.02 85.01 21.58 83.59 19 82 C17.67 81.32 16.34 80.65 15 80 C15 79.34 15 78.68 15 78 C14.13 77.81 14.13 77.81 13.25 77.62 C11 77 11 77 9.12 75.88 C6.07 74.62 4.16 75.16 1 76 C0.13 76.54 -0.73 77.07 -1.62 77.62 C-2.41 78.08 -3.19 78.53 -4 79 C-4.62 78.81 -5.24 78.63 -5.88 78.44 C-9.52 77.69 -11.96 80.07 -15 82 C-14.67 82.99 -14.34 83.98 -14 85 C-19.97 88.87 -25.94 92.63 -32.22 95.96 C-34.16 97 -34.16 97 -36 99 C-37.88 99.27 -37.88 99.27 -40 99.25 C-40.7 99.26 -41.4 99.26 -42.12 99.27 C-44 99 -44 99 -46 97 C-47.5 96.22 -49.03 95.47 -50.56 94.75 C-55.69 92.24 -60.32 89.26 -65 86 C-65.99 85.34 -66.98 84.68 -68 84 C-76.65 76.2 -77.05 65.57 -77.75 54.47 C-77.85 52 -77.85 52 -79 50 C-79.08 48.33 -79.11 46.66 -79.1 44.99 C-79.09 44.01 -79.09 43.02 -79.09 42 C-79.08 40.97 -79.07 39.94 -79.06 38.88 C-79.06 37.83 -79.05 36.79 -79.05 35.72 C-79.04 33.15 -79.02 30.57 -79 28 C-78.34 28 -77.68 28 -77 28 C-77.33 27.01 -77.66 26.02 -78 25 C-77.96 22.66 -77.85 20.33 -77.69 18 C-77.61 16.76 -77.53 15.52 -77.45 14.25 C-77 11 -77 11 -75 8 C-72.56 8.38 -72.56 8.38 -70 9 C-69.67 9.66 -69.34 10.32 -69 11 C-66.08 12.57 -63.08 13.95 -60.08 15.37 C-57.04 16.98 -54.63 18.79 -52 21 C-46.87 24.94 -46.87 24.94 -40.69 25.88 C-36.49 24.64 -36.49 24.64 -33.06 22.06 C-31.06 20.06 -29.5 19.21 -27 18 C-26.54 17.53 -26.08 17.05 -25.61 16.56 C-23.91 14.91 -22.41 14.05 -20.28 13.03 C-19.57 12.69 -18.87 12.34 -18.15 11.99 C-17.42 11.64 -16.69 11.3 -15.94 10.94 C-14.49 10.24 -13.04 9.54 -11.59 8.84 C-10.95 8.53 -10.31 8.23 -9.65 7.91 C-7.81 6.99 -7.81 6.99 -6 5 C-5.01 5 -4.02 5 -3 5 C-2.54 4.04 -2.54 4.04 -2.06 3.06 C-1 1 -1 1 0 0 Z M-76 11 C-75 13 -75 13 -75 13 Z M176 11 C177 14 177 14 177 14 Z M175 16 C176 18 176 18 176 18 Z M177 47 C178 50 178 50 178 50 Z M-4 74 C-3.67 74.99 -3.34 75.98 -3 77 C-2.34 76.67 -1.68 76.34 -1 76 C-1 75.34 -1 74.68 -1 74 C-1.99 74 -2.98 74 -4 74 Z M82 77 C81.67 77.66 81.34 78.32 81 79 C81.66 79 82.32 79 83 79 C82.67 78.34 82.34 77.68 82 77 Z M73 82 C73.33 82.66 73.66 83.32 74 84 C74.33 83.34 74.66 82.68 75 82 C74.34 82 73.68 82 73 82 Z M-61 86 C-60 88 -60 88 -60 88 Z M159 86 C159.33 86.66 159.66 87.32 160 88 C160.33 87.34 160.66 86.68 161 86 C160.34 86 159.68 86 159 86 Z M-26 88 C-25.67 88.66 -25.34 89.32 -25 90 C-24.67 89.34 -24.34 88.68 -24 88 C-24.66 88 -25.32 88 -26 88 Z M154 88 C154.33 88.66 154.66 89.32 155 90 C155.66 90 156.32 90 157 90 C157 89.34 157 88.68 157 88 C156.01 88 155.02 88 154 88 Z M-55 90 C-54 92 -54 92 -54 92 Z M-30 90 C-29.67 90.66 -29.34 91.32 -29 92 C-28.34 92 -27.68 92 -27 92 C-27 91.34 -27 90.68 -27 90 C-27.99 90 -28.98 90 -30 90 Z M60 90 C60.33 90.66 60.66 91.32 61 92 C61.66 92 62.32 92 63 92 C63 91.34 63 90.68 63 90 C62.01 90 61.02 90 60 90 Z M151 90 C151.33 90.66 151.66 91.32 152 92 C152.33 91.34 152.66 90.68 153 90 C152.34 90 151.68 90 151 90 Z M-34 92 C-33.67 92.66 -33.34 93.32 -33 94 C-32.34 94 -31.68 94 -31 94 C-31 93.34 -31 92.68 -31 92 C-31.99 92 -32.98 92 -34 92 Z M55 94 C56 96 56 96 56 96 Z " fill="#5896F6" transform="translate(578,355)"/>
<path d="M0 0 C3.46 1.81 6.72 3.88 10 6 C10.81 6.49 11.62 6.97 12.46 7.47 C16.15 9.69 19.76 12.04 23.38 14.38 C27.41 17.06 27.41 17.06 32 18 C33 19 34 20 35 21 C35.66 21 36.32 21 37 21 C38.37 22.29 39.71 23.62 41 25 C44.55 23.79 44.55 23.79 47.44 21.5 C49 20 49 20 51.94 19.06 C55.29 17.9 56.62 16.55 59 14 C59.99 13.67 60.98 13.34 62 13 C64.65 11.92 65.83 11.24 67.5 8.88 C68.24 7.95 68.24 7.95 69 7 C70.32 7 71.64 7 73 7 C73.33 6.01 73.66 5.02 74 4 C74.99 3.67 75.98 3.34 77 3 C79.52 1.82 81.67 0.56 84 -1 C86.94 -1.38 86.94 -1.38 90 -1 C90.9 -0.09 90.9 -0.09 91.82 0.84 C94.34 3.34 96.73 4.51 99.94 6 C104.12 7.95 107.45 10.06 111 13 C112.99 14.02 114.99 15.02 117 16 C118.34 16.82 119.67 17.65 121 18.5 C125.82 21.59 125.82 21.59 131 24 C133.54 23.45 133.54 23.45 136 22 C142.36 18.88 142.36 18.88 145.31 19.44 C147.67 21.62 148.01 23.95 149 27 C150.52 30.54 152.08 34.05 153.66 37.56 C154.91 40.77 155.57 43.59 156 47 C156.59 50.01 156.77 50.77 159 53 C159.7 55.32 160.36 57.66 161 60 C161.37 60.87 161.74 61.73 162.12 62.62 C163.09 65.25 163 67.23 163 70 C163.35 70.62 163.7 71.24 164.06 71.88 C165.54 75.22 164.94 77.54 164 81 C162 82.62 162 82.62 159 84 C157.58 84.76 156.16 85.53 154.75 86.31 C153.98 86.74 153.21 87.16 152.41 87.6 C149.15 89.5 146.05 91.61 142.95 93.77 C141 95 141 95 138 96 C137.34 95.01 136.68 94.02 136 93 C136 93.66 136 94.32 136 95 C135.34 95 134.68 95 134 95 C134 95.66 134 96.32 134 97 C131 98 131 98 127.56 96.56 C122.76 94.02 118.31 90.96 113.83 87.9 C109.11 84.73 104.19 81.99 99.18 79.28 C96.99 77.99 95.02 76.55 93 75 C90.44 73.35 89.45 72.95 86.38 73.31 C84.01 73.92 84.01 73.92 82 75 C81.01 74.67 80.02 74.34 79 74 C78.01 75.98 78.01 75.98 77 78 C76.01 77.34 75.02 76.68 74 76 C74.33 77.32 74.66 78.64 75 80 C73.93 80.51 73.93 80.51 72.85 81.02 C71.47 81.69 71.47 81.69 70.06 82.38 C69.15 82.82 68.23 83.26 67.29 83.71 C64.87 84.79 64.87 84.79 64 87 C62.22 88 62.22 88 60.06 89 C57.51 90.18 56.01 90.99 54 93 C51.38 93.12 51.38 93.12 49 93 C49 93.99 49 94.98 49 96 C47.02 96.66 45.04 97.32 43 98 C43.5 96.51 43.5 96.51 44 95 C43.4 95.33 42.8 95.66 42.19 96 C40 97 40 97 37 97 C37 96.34 37 95.68 37 95 C36.28 94.9 35.56 94.79 34.81 94.69 C31.72 93.93 29.58 92.84 27 91 C27 90.34 27 89.68 27 89 C25.51 88.5 25.51 88.5 24 88 C22.34 87.07 20.67 86.13 19.03 85.17 C16.85 83.91 14.65 82.71 12.44 81.5 C8.82 79.5 5.4 77.35 2 75 C-0.82 72.66 -0.82 72.66 -4 73.31 C-7.03 73.96 -7.03 73.96 -10 75 C-10.66 74.01 -11.32 73.02 -12 72 C-12 72.66 -12 73.32 -12 74 C-12.66 74.66 -13.32 75.32 -14 76 C-13.67 76.66 -13.34 77.32 -13 78 C-14.97 79.24 -16.95 80.47 -18.93 81.71 C-20.41 82.63 -21.89 83.56 -23.38 84.5 C-27.49 86.85 -31.75 88.91 -36 91 C-36 90.34 -36 89.68 -36 89 C-36.99 89 -37.98 89 -39 89 C-38.34 90.32 -37.68 91.64 -37 93 C-38.32 93 -39.64 93 -41 93 C-41 93.66 -41 94.32 -41 95 C-42.32 95 -43.64 95 -45 95 C-45.33 95.66 -45.66 96.32 -46 97 C-46.33 96.67 -46.66 96.34 -47 96 C-47.54 96.39 -48.07 96.78 -48.62 97.19 C-51 98 -51 98 -54.25 96.62 C-55.16 96.09 -56.07 95.55 -57 95 C-57 94.34 -57 93.68 -57 93 C-57.74 92.92 -58.49 92.83 -59.25 92.75 C-62 92 -62 92 -63.82 90.11 C-66.27 87.74 -68.42 86.73 -71.56 85.44 C-78.2 82.69 -78.2 82.69 -80 80 C-80.07 77.3 -80.07 77.3 -79.69 74.31 C-79.57 73.32 -79.45 72.32 -79.32 71.3 C-79.16 70.16 -79.16 70.16 -79 69 C-78.34 69 -77.68 69 -77 69 C-77.33 68.01 -77.66 67.02 -78 66 C-77.56 63.31 -77.56 63.31 -77 61 C-76.34 61 -75.68 61 -75 61 C-75.5 59.51 -75.5 59.51 -76 58 C-75.34 57.01 -74.68 56.02 -74 55 C-73.37 53.12 -72.8 51.22 -72.25 49.31 C-70.66 43.99 -68.89 38.77 -66.94 33.56 C-66.69 32.9 -66.45 32.24 -66.19 31.56 C-64.69 27.57 -62.97 23.78 -61 20 C-57.56 20.42 -55.38 21.35 -52.56 23.25 C-50.8 24.12 -50.8 24.12 -49 25 C-45.58 23.92 -45.58 23.92 -43 22 C-43 21.34 -43 20.68 -43 20 C-41.76 19.59 -40.52 19.18 -39.25 18.75 C-35.64 17.41 -33.6 15.88 -31 13 C-27.9 11.06 -26.86 11 -23 11 C-22.75 10.38 -22.5 9.76 -22.25 9.12 C-20.76 6.58 -19.75 5.97 -17 5 C-15.68 5 -14.36 5 -13 5 C-12.67 4.01 -12.34 3.02 -12 2 C-7.84 -1.43 -5.11 -1.42 0 0 Z M145 22 C146 24 146 24 146 24 Z M66 80 C66.33 80.66 66.66 81.32 67 82 C67.66 81.34 68.32 80.68 69 80 C68.01 80 67.02 80 66 80 Z M155 82 C155.66 82.66 156.32 83.32 157 84 C157 83.34 157 82.68 157 82 C156.34 82 155.68 82 155 82 Z M61 83 C61 83.99 61 84.98 61 86 C61.99 85.67 62.98 85.34 64 85 C64 84.34 64 83.68 64 83 C63.01 83 62.02 83 61 83 Z M145 87 C145 87.99 145 88.98 145 90 C145.99 89.67 146.98 89.34 148 89 C148 88.34 148 87.68 148 87 C147.01 87 146.02 87 145 87 Z M51 89 C51.33 89.99 51.66 90.98 52 92 C52.66 91.67 53.32 91.34 54 91 C54 90.34 54 89.68 54 89 C53.01 89 52.02 89 51 89 Z M45 93 C45.33 93.99 45.66 94.98 46 96 C46.66 95.67 47.32 95.34 48 95 C48 94.34 48 93.68 48 93 C47.01 93 46.02 93 45 93 Z " fill="#5997F9" transform="translate(586,269)"/>
<path d="M0 0 C2.54 1.36 2.54 1.36 5.19 3.19 C10.28 6.59 15.47 9.4 21 12 C21 12.66 21 13.32 21 14 C22 14.35 22 14.35 23.01 14.7 C25.45 15.76 27.47 16.86 29.71 18.27 C30.38 18.68 31.05 19.1 31.74 19.52 C33.12 20.38 34.49 21.26 35.85 22.16 C39.74 24.56 39.74 24.56 44.15 24.63 C46.25 23.87 46.25 23.87 48.15 22.9 C50.08 21.96 51.91 21.46 54 21 C54 20.34 54 19.68 54 19 C54.87 18.55 55.74 18.11 56.63 17.64 C63.93 13.98 63.93 13.98 70.44 9.12 C73.35 6.71 75.27 6.27 79 6 C79.33 5.01 79.66 4.02 80 3 C80.99 3.33 81.98 3.66 83 4 C83 3.34 83 2.68 83 2 C86.27 -0.18 87.22 -0.37 91 0 C93.31 1 93.31 1 95 2 C95 2.66 95 3.32 95 4 C95.56 4.1 96.11 4.21 96.69 4.31 C100.74 5.52 103.94 7.95 107.31 10.44 C110.41 12.69 113.59 14.33 117.04 15.97 C119 17 120.67 18.16 122.44 19.5 C126.31 22.39 130.54 24.19 135 26 C135.64 25.44 136.28 24.89 136.94 24.31 C141.77 20.66 150.65 14 157 14 C157.57 18.81 155.83 21.2 153 25 C152.67 24.34 152.34 23.68 152 23 C151.01 23 150.02 23 149 23 C149 23.99 149 24.98 149 26 C149.66 26.33 150.32 26.66 151 27 C148.25 31.27 145.31 35.14 142 39 C140.68 38.67 139.36 38.34 138 38 C138.99 39.98 138.99 39.98 140 42 C138.3 43.78 136.59 45.55 134.88 47.31 C134.4 47.81 133.93 48.31 133.44 48.83 C130.24 52.08 127.25 54.15 123 56 C122.34 55.01 121.68 54.02 121 53 C121 53.66 121 54.32 121 55 C120.34 55 119.68 55 119 55 C119 55.99 119 56.98 119 58 C119.66 58.33 120.32 58.66 121 59 C119.35 59.66 117.7 60.32 116 61 C116 60.34 116 59.68 116 59 C115.01 59 114.02 59 113 59 C113.99 60.98 113.99 60.98 115 63 C113.68 63 112.36 63 111 63 C110.67 63.66 110.34 64.32 110 65 C110 64.34 110 63.68 110 63 C109.01 63 108.02 63 107 63 C107.66 64.32 108.32 65.64 109 67 C107.68 67 106.36 67 105 67 C105 67.66 105 68.32 105 69 C104.43 69.24 103.86 69.47 103.27 69.72 C100.7 70.79 98.13 71.86 95.56 72.94 C94.22 73.5 94.22 73.5 92.84 74.07 C91.99 74.43 91.13 74.78 90.25 75.15 C89.46 75.48 88.67 75.81 87.86 76.15 C86.03 76.86 86.03 76.86 85 78 C82.67 78.33 80.33 78.67 78 79 C77.67 79.33 77.34 79.66 77 80 C74.94 80.32 72.88 80.51 70.81 80.72 C68.98 80.82 68.98 80.82 68 82 C66.53 82.1 65.06 82.13 63.59 82.13 C62.65 82.13 61.71 82.14 60.75 82.14 C59.73 82.14 58.71 82.13 57.66 82.13 C56.1 82.13 56.1 82.13 54.51 82.14 C52.3 82.14 50.1 82.13 47.9 82.13 C44.51 82.13 41.13 82.13 37.75 82.14 C35.61 82.14 33.48 82.13 31.34 82.13 C30.32 82.13 29.3 82.14 28.25 82.14 C26.85 82.13 26.85 82.13 25.41 82.13 C24.58 82.13 23.75 82.13 22.9 82.13 C21 82 21 82 20 81 C18.87 80.9 17.73 80.79 16.56 80.69 C12.17 80.19 8.52 78.75 4.48 77.02 C2.29 76.12 0.15 75.42 -2.12 74.75 C-13.02 71.18 -23.38 65.53 -32 58 C-34.49 55.97 -36.79 54.12 -39.56 52.5 C-42.13 50.92 -44.02 49.27 -46 47 C-46 46.34 -46 45.68 -46 45 C-46.66 45 -47.32 45 -48 45 C-48.33 44.01 -48.66 43.02 -49 42 C-50.33 40.99 -51.66 39.99 -53 39 C-54.37 37.37 -55.71 35.7 -57 34 C-57.64 33.24 -58.28 32.47 -58.94 31.69 C-66.45 21.9 -66.45 21.9 -67 16 C-65.02 16.33 -63.04 16.66 -61 17 C-61 17.66 -61 18.32 -61 19 C-60.48 19.25 -59.97 19.5 -59.44 19.75 C-57 21 -57 21 -53.62 23.12 C-50.33 25.05 -47.85 25.38 -44 25 C-44 24.34 -44 23.68 -44 23 C-42.68 23 -41.36 23 -40 23 C-40 22.34 -40 21.68 -40 21 C-37.92 19.49 -37.92 19.49 -35.19 17.88 C-34.29 17.34 -33.4 16.8 -32.48 16.24 C-30 15 -30 15 -27 15 C-26.34 14.34 -25.68 13.68 -25 13 C-23.41 12.02 -21.8 11.06 -20.19 10.12 C-16.54 7.97 -13.26 5.7 -10 3 C-6.44 0.5 -4.35 -0.45 0 0 Z M155 17 C156 19 156 19 156 19 Z M151 19 C152 21 152 21 152 21 Z M137 40 C138 42 138 42 138 42 Z M99 67 C99.33 67.66 99.66 68.32 100 69 C100.66 68.34 101.32 67.68 102 67 C101.01 67 100.02 67 99 67 Z M85 73 C85.33 73.66 85.66 74.32 86 75 C86.66 75 87.32 75 88 75 C88 74.34 88 73.68 88 73 C87.01 73 86.02 73 85 73 Z " fill="#5997F8" transform="translate(584,443)"/>
<path d="M0 0 C1.01 0.99 2.01 1.99 3 3 C3.99 3.33 4.98 3.66 6 4 C6 4.66 6 5.32 6 6 C6.59 6.27 7.18 6.53 7.79 6.81 C10.05 8.02 11.54 9.28 13.35 11.08 C13.95 11.68 14.56 12.29 15.18 12.91 C15.8 13.54 16.42 14.17 17.06 14.81 C17.69 15.43 18.31 16.05 18.96 16.68 C22.19 19.93 24.77 22.96 27 27 C27.99 28.26 29.01 29.49 30.06 30.69 C30.57 31.27 31.08 31.85 31.6 32.45 C32.7 33.67 33.84 34.84 35 36 C35 36.99 35 37.98 35 39 C35.66 39.33 36.32 39.66 37 40 C38 41.67 39 43.33 40 45 C40.88 46.05 41.78 47.1 42.69 48.12 C45 51 45 51 45 54 C45.66 54 46.32 54 47 54 C47 55.32 47 56.64 47 58 C47.66 58 48.32 58 49 58 C49 58.66 49 59.32 49 60 C49.66 60.66 50.32 61.32 51 62 C52.46 64.58 53.61 67.05 54 70 C52 72 52 72 48.88 72.12 C47.93 72.08 46.98 72.04 46 72 C45.67 71.34 45.34 70.68 45 70 C44.3 69.88 43.6 69.75 42.88 69.62 C39.12 68.81 36.24 66.98 33 65 C32.15 64.5 31.31 63.99 30.43 63.47 C26.91 61.37 23.41 59.28 20 57 C20 56.34 20 55.68 20 55 C19.22 54.86 18.43 54.71 17.62 54.56 C15 54 15 54 13 53 C13 52.34 13 51.68 13 51 C12.44 50.9 11.89 50.79 11.31 50.69 C9 50 9 50 6.5 48.31 C5.67 47.88 4.85 47.45 4 47 C2.11 47.73 2.11 47.73 0 49 C-0.97 49.47 -1.94 49.95 -2.95 50.44 C-3.99 50.95 -5.04 51.47 -6.12 52 C-7.18 52.52 -8.23 53.03 -9.32 53.56 C-12.06 54.86 -12.06 54.86 -14 57 C-14.99 57 -15.98 57 -17 57 C-17.33 57.66 -17.66 58.32 -18 59 C-18.66 58.34 -19.32 57.68 -20 57 C-20.66 57.66 -21.32 58.32 -22 59 C-21.34 59.66 -20.68 60.32 -20 61 C-23.01 61.93 -23.87 62.04 -27 61 C-29.69 62.87 -29.69 62.87 -32 65 C-31.67 65.66 -31.34 66.32 -31 67 C-40.81 73.1 -40.81 73.1 -46 72 C-48.81 70.53 -51.39 68.8 -54 67 C-58.58 64.18 -63.29 61.6 -68 59 C-68 58.34 -68 57.68 -68 57 C-68.56 56.9 -69.11 56.79 -69.69 56.69 C-72.48 55.86 -74.53 54.55 -77 53 C-78.23 52.31 -79.46 51.62 -80.69 50.94 C-84 49 -84 49 -86 47 C-91.32 47.59 -96.34 50.19 -100 54 C-101.99 55.02 -103.99 56.02 -106 57 C-106.66 57.66 -107.32 58.32 -108 59 C-108.99 59 -109.98 59 -111 59 C-111.33 59.66 -111.66 60.32 -112 61 C-112.66 60.34 -113.32 59.68 -114 59 C-114.99 59.99 -114.99 59.99 -116 61 C-115.5 61.99 -115.5 61.99 -115 63 C-117.25 64.56 -117.25 64.56 -120 66 C-120.99 65.72 -120.99 65.72 -122 65.44 C-124.24 64.7 -124.24 64.7 -126.75 66.75 C-127.49 67.49 -128.24 68.24 -129 69 C-129 69.99 -129 70.98 -129 72 C-131.97 72.99 -131.97 72.99 -135 74 C-135 73.34 -135 72.68 -135 72 C-135.99 71.67 -136.98 71.34 -138 71 C-138.5 68.52 -138.5 68.52 -139 66 C-137.02 65.01 -137.02 65.01 -135 64 C-135 62.68 -135 61.36 -135 60 C-134.34 60 -133.68 60 -133 60 C-133 58.68 -133 57.36 -133 56 C-132.34 56 -131.68 56 -131 56 C-130.88 55.05 -130.75 54.1 -130.62 53.12 C-130 50 -130 50 -128 48 C-127.12 46.73 -126.26 45.43 -125.44 44.12 C-124.79 43.11 -124.79 43.11 -124.12 42.07 C-122.92 40.07 -122.92 40.07 -122.53 37.91 C-121.57 34.45 -118.82 33.07 -116 31 C-115.34 31 -114.68 31 -114 31 C-113.75 30.13 -113.5 29.27 -113.25 28.38 C-111.91 24.75 -110.39 22.03 -108 19 C-106.67 18.64 -105.34 18.3 -104 18 C-102.99 16.34 -101.99 14.67 -101 13 C-99.34 11.99 -97.67 10.99 -96 10 C-95.32 8.68 -94.65 7.34 -94 6 C-90.66 2.83 -89.73 2 -85 2 C-84.34 0.68 -83.68 -0.64 -83 -2 C-81.68 -2 -80.36 -2 -79 -2 C-78.67 -2.99 -78.34 -3.98 -78 -5 C-75.13 -6.64 -75.13 -6.64 -71.56 -8.25 C-70.39 -8.79 -69.21 -9.33 -68 -9.89 C-67.01 -10.26 -66.02 -10.62 -65 -11 C-64.01 -10.5 -64.01 -10.5 -63 -10 C-63 -10.66 -63 -11.32 -63 -12 C-39.81 -17.46 -19.99 -13.04 0 0 Z M22 22 C23 24 23 24 23 24 Z M-92 44 C-91.67 44.66 -91.34 45.32 -91 46 C-90.34 46 -89.68 46 -89 46 C-89 45.34 -89 44.68 -89 44 C-89.99 44 -90.98 44 -92 44 Z M-96 46 C-95.67 46.66 -95.34 47.32 -95 48 C-94.34 48 -93.68 48 -93 48 C-93 47.34 -93 46.68 -93 46 C-93.99 46 -94.98 46 -96 46 Z M-8 48 C-7.67 48.66 -7.34 49.32 -7 50 C-6.67 49.34 -6.34 48.68 -6 48 C-6.66 48 -7.32 48 -8 48 Z M-108 53 C-107.67 53.66 -107.34 54.32 -107 55 C-106.34 55 -105.68 55 -105 55 C-105 54.34 -105 53.68 -105 53 C-105.99 53 -106.98 53 -108 53 Z M-111 55 C-110 57 -110 57 -110 57 Z M-38 66 C-37.67 66.66 -37.34 67.32 -37 68 C-36.67 67.34 -36.34 66.68 -36 66 C-36.66 66 -37.32 66 -38 66 Z M-44 69 C-43 71 -43 71 -43 71 Z M48 69 C49 71 49 71 49 71 Z " fill="#5795F4" transform="translate(671,207)"/>
<path d="M0 0 C8.25 0 16.5 0 25 0 C25 0.33 25 0.66 25 1 C16.75 1 8.5 1 0 1 C0 0.67 0 0.34 0 0 Z " fill="#000002" transform="translate(616,526)"/>
<path d="M0 0 C0.33 0 0.66 0 1 0 C1 2.97 1 5.94 1 9 C0.67 9 0.34 9 0 9 C0 6.03 0 3.06 0 0 Z " fill="#000002" transform="translate(757,406)"/>
<path d="M0 0 C0.33 0 0.66 0 1 0 C1 2.97 1 5.94 1 9 C0.67 9 0.34 9 0 9 C0 6.03 0 3.06 0 0 Z " fill="#000002" transform="translate(757,378)"/>
<path d="M0 0 C0.99 0.66 1.98 1.32 3 2 C1.68 2.33 0.36 2.66 -1 3 C-1.33 2.34 -1.66 1.68 -2 1 C-1.34 0.67 -0.68 0.34 0 0 Z " fill="#385F9D" transform="translate(648,441)"/>
<path d="M0 0 C0.99 0.66 1.98 1.32 3 2 C1.68 2.33 0.36 2.66 -1 3 C-1.33 2.34 -1.66 1.68 -2 1 C-1.34 0.67 -0.68 0.34 0 0 Z " fill="#385F9D" transform="translate(748,435)"/>
<path d="M0 0 C0.66 0.66 1.32 1.32 2 2 C1.01 2.33 0.02 2.66 -1 3 C-1.66 2.34 -2.32 1.68 -3 1 C-2.01 0.67 -1.02 0.34 0 0 Z " fill="#2D4C7E" transform="translate(567,435)"/>
<path d="M0 0 C0.99 0.66 1.98 1.32 3 2 C1.68 2.33 0.36 2.66 -1 3 C-1.33 2.34 -1.66 1.68 -2 1 C-1.34 0.67 -0.68 0.34 0 0 Z " fill="#385F9D" transform="translate(644,268)"/>
<path d="M0 0 C0.66 0.66 1.32 1.32 2 2 C1.01 2.5 1.01 2.5 0 3 C-0.66 2.34 -1.32 1.68 -2 1 C-1.34 0.67 -0.68 0.34 0 0 Z " fill="#3C66A8" transform="translate(645,443)"/>
<path d="M0 0 C0.66 0.66 1.32 1.32 2 2 C1.01 2.5 1.01 2.5 0 3 C-0.66 2.34 -1.32 1.68 -2 1 C-1.34 0.67 -0.68 0.34 0 0 Z " fill="#3C66A8" transform="translate(570,433)"/>
<path d="M0 0 C0.66 0.33 1.32 0.66 2 1 C2 1.66 2 2.32 2 3 C1.01 2.67 0.02 2.34 -1 2 C-0.67 1.34 -0.34 0.68 0 0 Z " fill="#3C66A8" transform="translate(627,365)"/>
<path d="M0 0 C0.33 0 0.66 0 1 0 C1 1.98 1 3.96 1 6 C0.67 6 0.34 6 0 6 C0 4.02 0 2.04 0 0 Z " fill="#000002" transform="translate(751,343)"/>
<path d="M0 0 C0.66 0.66 1.32 1.32 2 2 C1.01 2.5 1.01 2.5 0 3 C-0.66 2.34 -1.32 1.68 -2 1 C-1.34 0.67 -0.68 0.34 0 0 Z " fill="#3C66A8" transform="translate(574,343)"/>
<path d="M0 0 C0.66 0.66 1.32 1.32 2 2 C1.01 2.5 1.01 2.5 0 3 C-0.66 2.34 -1.32 1.68 -2 1 C-1.34 0.67 -0.68 0.34 0 0 Z " fill="#3C66A8" transform="translate(547,272)"/>
<path d="M0 0 C0.66 0.66 1.32 1.32 2 2 C1.01 2.5 1.01 2.5 0 3 C-0.66 2.34 -1.32 1.68 -2 1 C-1.34 0.67 -0.68 0.34 0 0 Z " fill="#3C66A8" transform="translate(641,270)"/>
<path d="M0 0 C0.33 0.99 0.66 1.98 1 3 C0.01 2.67 -0.98 2.34 -2 2 C-1.34 1.34 -0.68 0.68 0 0 Z " fill="#3C66A8" transform="translate(557,266)"/>
<path d="M0 0 C0.66 0.66 1.32 1.32 2 2 C1.01 2 0.02 2 -1 2 C-0.67 1.34 -0.34 0.68 0 0 Z " fill="#487AC9" transform="translate(722,364)"/>
<path d="M0 0 C0.66 0.66 1.32 1.32 2 2 C1.01 2 0.02 2 -1 2 C-0.67 1.34 -0.34 0.68 0 0 Z " fill="#365B97" transform="translate(665,343)"/>
<path d="M0 0 C0 0.99 0 1.98 0 3 C-0.66 2.34 -1.32 1.68 -2 1 C-1.34 0.67 -0.68 0.34 0 0 Z " fill="#365B97" transform="translate(651,264)"/>
<path d="M0 0 C0.66 0.66 1.32 1.32 2 2 C1.01 2.5 1.01 2.5 0 3 C0 2.01 0 1.02 0 0 Z " fill="#5A99FB" transform="translate(745,437)"/>
<path d="M0 0 C1 4 1 4 1 4 Z " fill="#000002" transform="translate(755,422)"/>
<path d="M0 0 C4 1 4 1 4 1 Z " fill="#5A99FB" transform="translate(626,191)"/>
<path d="M0 0 C0.66 0.66 1.32 1.32 2 2 C1.34 2 0.68 2 0 2 C0 1.34 0 0.68 0 0 Z " fill="#1E3355" transform="translate(752,428)"/>
<path d="" fill="#000002" transform="translate(0,0)"/>
<path d="M0 0 C3 1 3 1 3 1 Z " fill="#5A99FB" transform="translate(536,367)"/>
<path d="M0 0 C0.66 0 1.32 0 2 0 C1.67 0.66 1.34 1.32 1 2 C0.67 1.34 0.34 0.68 0 0 Z " fill="#1E3355" transform="translate(542,275)"/>
<path d="M0 0 C2 1 2 1 2 1 Z " fill="#000002" transform="translate(653,524)"/>
<path d="M0 0 C2 1 2 1 2 1 Z " fill="#000002" transform="translate(602,524)"/>
<path d="M0 0 C2 1 2 1 2 1 Z " fill="#000002" transform="translate(662,522)"/>
<path d="M0 0 C2 1 2 1 2 1 Z " fill="#000002" transform="translate(593,522)"/>
<path d="M0 0 C2 1 2 1 2 1 Z " fill="#000002" transform="translate(583,518)"/>
<path d="M0 0 C2 1 2 1 2 1 Z " fill="#000002" transform="translate(621,451)"/>
<path d="M0 0 C2 1 2 1 2 1 Z " fill="#5A99FB" transform="translate(697,442)"/>
<path d="" fill="#000002" transform="translate(0,0)"/>
<path d="" fill="#5A99FB" transform="translate(0,0)"/>
<path d="M0 0 C2 1 2 1 2 1 Z " fill="#5A99FB" transform="translate(718,367)"/>
<path d="M0 0 C2 1 2 1 2 1 Z " fill="#000002" transform="translate(719,280)"/>
<path d="M0 0 C2 1 2 1 2 1 Z " fill="#000002" transform="translate(627,280)"/>
<path d="" fill="#2D4C7E" transform="translate(0,0)"/>
<path d="" fill="#000002" transform="translate(0,0)"/>
<path d="" fill="#000002" transform="translate(0,0)"/>
<path d="" fill="#5A99FB" transform="translate(0,0)"/>
<path d="" fill="#000002" transform="translate(0,0)"/>
<path d="" fill="#5A99FB" transform="translate(0,0)"/>
<path d="" fill="#000002" transform="translate(0,0)"/>
<path d="" fill="#5A99FB" transform="translate(0,0)"/>
<path d="" fill="#5A99FB" transform="translate(0,0)"/>
<path d="" fill="#000002" transform="translate(0,0)"/>
<path d="" fill="#5A99FB" transform="translate(0,0)"/>
<path d="" fill="#000002" transform="translate(0,0)"/>
<path d="" fill="#5A99FB" transform="translate(0,0)"/>
<path d="" fill="#000002" transform="translate(0,0)"/>
<path d="" fill="#5A99FB" transform="translate(0,0)"/>
<path d="" fill="#000002" transform="translate(0,0)"/>
<path d="" fill="#5A99FB" transform="translate(0,0)"/>
<path d="" fill="#000002" transform="translate(0,0)"/>
<path d="" fill="#5A99FB" transform="translate(0,0)"/>
<path d="" fill="#000002" transform="translate(0,0)"/>
<path d="" fill="#5A99FB" transform="translate(0,0)"/>
<path d="" fill="#5A99FB" transform="translate(0,0)"/>
<path d="" fill="#000002" transform="translate(0,0)"/>
<path d="" fill="#5A99FB" transform="translate(0,0)"/>
<path d="" fill="#5A99FB" transform="translate(0,0)"/>
<path d="" fill="#5A99FB" transform="translate(0,0)"/>
<path d="" fill="#5A99FB" transform="translate(0,0)"/>
<path d="" fill="#000002" transform="translate(0,0)"/>
<path d="" fill="#000002" transform="translate(0,0)"/>
<path d="" fill="#000002" transform="translate(0,0)"/>
<path d="" fill="#5A99FB" transform="translate(0,0)"/>
<path d="" fill="#5A99FB" transform="translate(0,0)"/>
<path d="" fill="#5A99FB" transform="translate(0,0)"/>
<path d="" fill="#000002" transform="translate(0,0)"/>
<path d="" fill="#000002" transform="translate(0,0)"/>
<path d="" fill="#5A99FB" transform="translate(0,0)"/>
<path d="" fill="#5A99FB" transform="translate(0,0)"/>
<path d="" fill="#000002" transform="translate(0,0)"/>
<path d="" fill="#000002" transform="translate(0,0)"/>
<path d="" fill="#5A99FB" transform="translate(0,0)"/>
<path d="" fill="#000002" transform="translate(0,0)"/>
<path d="" fill="#000002" transform="translate(0,0)"/>
<path d="" fill="#000002" transform="translate(0,0)"/>
<path d="" fill="#5A99FB" transform="translate(0,0)"/>
<path d="" fill="#000002" transform="translate(0,0)"/>
<path d="" fill="#000002" transform="translate(0,0)"/>
<path d="" fill="#000002" transform="translate(0,0)"/>
<path d="" fill="#5A99FB" transform="translate(0,0)"/>
<path d="" fill="#000002" transform="translate(0,0)"/>
<path d="" fill="#000002" transform="translate(0,0)"/>
<path d="" fill="#000002" transform="translate(0,0)"/>
<path d="" fill="#000002" transform="translate(0,0)"/>
<path d="" fill="#5A99FB" transform="translate(0,0)"/>
<path d="" fill="#000002" transform="translate(0,0)"/>
<path d="" fill="#000002" transform="translate(0,0)"/>
<path d="" fill="#5A99FB" transform="translate(0,0)"/>
<path d="" fill="#000002" transform="translate(0,0)"/>
<path d="" fill="#5A99FB" transform="translate(0,0)"/>
<path d="" fill="#5A99FB" transform="translate(0,0)"/>
<path d="" fill="#5A99FB" transform="translate(0,0)"/>
<path d="" fill="#000002" transform="translate(0,0)"/>
<path d="" fill="#5A99FB" transform="translate(0,0)"/>
<path d="" fill="#5A99FB" transform="translate(0,0)"/>
<path d="" fill="#5A99FB" transform="translate(0,0)"/>
<path d="" fill="#000002" transform="translate(0,0)"/>
<path d="" fill="#5A99FB" transform="translate(0,0)"/>
<path d="" fill="#000002" transform="translate(0,0)"/>
<path d="" fill="#5A99FB" transform="translate(0,0)"/>
<path d="" fill="#5A99FB" transform="translate(0,0)"/>
<path d="" fill="#5A99FB" transform="translate(0,0)"/>
<path d="" fill="#5A99FB" transform="translate(0,0)"/>
</svg>
